<svg xmlns="http://www.w3.org/2000/svg" xmlns:xlink="http://www.w3.org/1999/xlink" version="1.1" style="" xml:space="preserve" width="911" height="256"><rect id="backgroundrect" width="100%" height="100%" x="0" y="0" fill="none" stroke="none"/>
<style type="text/css">
	.st0{fill:#9AC354;}
	.st1{fill:#14652E;}
	.st2{fill:#030305;}
</style>










<g class="currentLayer" style=""><title>Layer 1</title><g id="svg_1" class="">
	<path class="st0" d="M354.4,129.40001220703124 c0,-29.7 -24.1,-53.8 -53.8,-53.8 s-53.8,24.1 -53.8,53.8 h-17.6 c0,-39.4 32,-71.4 71.4,-71.4 s71.4,32 71.4,71.4 H354.4 z" id="svg_2"/>
</g><g id="svg_3" class="">
	<path d="M300.6,183.20001220703125 c-29.7,0 -53.8,-24.1 -53.8,-53.8 c0,-29.7 24.1,-53.8 53.8,-53.8 s53.8,24.1 53.8,53.8 C354.4,159.10001220703123 330.2,183.20001220703125 300.6,183.20001220703125 zM300.6,84.40001220703124 c-24.8,0 -45,20.2 -45,45 s20.2,45 45,45 s45,-20.2 45,-45 S325.4,84.40001220703124 300.6,84.40001220703124 z" id="svg_4"/>
</g><g id="svg_5" class="">
	<path class="st1" d="M371.9,129.40001220703124 c0,39.4 -32,71.4 -71.4,71.4 s-71.4,-32 -71.4,-71.4 h17.6 c0,29.7 24.1,53.8 53.8,53.8 s53.8,-24.1 53.8,-53.8 H371.9 z" id="svg_6"/>
</g><g id="svg_7" class="">
	<g id="svg_8">
		<g id="svg_9">
			<path class="st2" d="M334,129.40001220703124 L334,129.40001220703124 c-0.1,-1.8 -0.8,-3.6 -1.8,-5 c-1,-1.5 -2.4,-2.7 -3.8,-3.6 c-0.8,-0.6000000000000001 -1.7000000000000002,-1.1 -2.6,-1.5 c0.30000000000000004,-1 0.6000000000000001,-2 0.8,-3 c0.30000000000000004,-1.7000000000000002 0.4,-3.4 0.1,-5.2 c-0.30000000000000004,-1.7000000000000002 -1,-3.5 -2.2,-4.8 l0,0 c0,0 -0.1,-0.1 -0.1,-0.1 c0,0 -0.1,-0.1 -0.1,-0.1 l0,0 c-1.3,-1.2 -3.1,-2 -4.8,-2.2 c-1.8,-0.30000000000000004 -3.6,-0.2 -5.2,0.1 c-1,0.2 -2.1,0.5 -3,0.8 c-0.5,-0.9 -0.9,-1.8 -1.5,-2.6 c-0.9,-1.4 -2.1,-2.7 -3.6,-3.8 c-1.4,-1 -3.2,-1.7000000000000002 -5,-1.8 v0 c-0.1,0 -0.1,0 -0.2,0 c-0.1,0 -0.1,0 -0.2,0 v0 c-1.8,0.1 -3.6,0.8 -5,1.8 c-1.5,1.1 -2.7,2.4 -3.6,3.8 c-0.6000000000000001,0.8 -1.1,1.7000000000000002 -1.5,2.6 c-1,-0.30000000000000004 -2.1,-0.7000000000000001 -3.2,-0.8 c-1.6,-0.30000000000000004 -3.4,-0.4 -5.1,0 c-1.6,0.30000000000000004 -3.2,1.1 -4.5,2.3 l0,0 c-0.1,0.1 -0.1,0.1 -0.1,0.2 c-0.1,0 -0.1,0.1 -0.2,0.1 l0,0 c-1.2,1.3 -2,2.9 -2.3,4.5 c-0.30000000000000004,1.8 -0.30000000000000004,3.5 0,5.1 c0.2,1.1 0.5,2.1 0.8,3.2 c-1,0.5 -2,1 -2.9,1.7000000000000002 c-1.4,1 -2.6,2.1 -3.6,3.6 c-0.9,1.3 -1.5,3 -1.6,4.8 h0 c0,0.1 0,0.1 0,0.2 s0,0.1 0,0.2 h0 c0.1,1.7000000000000002 0.7000000000000001,3.4 1.6,4.8 c1,1.5 2.3,2.7 3.6,3.6 c0.9,0.7000000000000001 1.9,1.2 2.9,1.7000000000000002 c-0.30000000000000004,1 -0.6000000000000001,2.1 -0.8,3.2 c-0.30000000000000004,1.6 -0.30000000000000004,3.4 0,5.1 c0.30000000000000004,1.6 1.1,3.2 2.3,4.5 l0,0 c0,0.1 0.1,0.1 0.2,0.1 c0.1,0 0.1,0.1 0.1,0.2 l0,0 c1.3,1.2 2.9,2 4.5,2.3 c1.8,0.30000000000000004 3.5,0.30000000000000004 5.1,0 c1.1,-0.2 2.1,-0.5 3.2,-0.8 c0.5,1 1,2 1.7000000000000002,2.9 c1,1.4 2.1,2.6 3.6,3.6 c1.3,0.9 3,1.5 4.8,1.6 v0 c0.1,0 0.1,0 0.2,0 s0.1,0 0.2,0 v0 c1.7000000000000002,-0.1 3.4,-0.7000000000000001 4.8,-1.6 c1.5,-1 2.7,-2.3 3.6,-3.7 c0.7000000000000001,-0.9 1.2,-1.9 1.7000000000000002,-2.9 c1,0.30000000000000004 1.9,0.6000000000000001 3,0.8 c1.7000000000000002,0.30000000000000004 3.4,0.4 5.2,0.1 c1.7000000000000002,-0.30000000000000004 3.4,-1 4.8,-2.2 l0,0 c0,0 0.1,-0.1 0.1,-0.1 c0,0 0.1,-0.1 0.1,-0.1 l0,0 c1.2,-1.3 2,-3.1 2.2,-4.8 c0.30000000000000004,-1.8 0.2,-3.6 -0.1,-5.2 c-0.2,-1 -0.5,-2.1 -0.8,-3 c0.9,-0.5 1.8,-0.9 2.6,-1.5 c1.4,-1 2.7,-2.1 3.8,-3.6 c1,-1.4 1.7000000000000002,-3.2 1.8,-5 h0 c0,-0.1 0,-0.1 0,-0.2 C333.9,129.50001220703126 334,129.50001220703126 334,129.40001220703124 zM314.7,107.20001220703125 c2.7,-0.30000000000000004 5.4,0 7.1,1.6 c1.6,1.7000000000000002 1.9,4.3 1.6,7.1 c-0.1,0.8 -0.2,1.5 -0.4,2.3 c-1.2,-0.4 -2.3,-0.8 -3.5,-1.1 c-1.7000000000000002,-0.4 -3.3,-0.7000000000000001 -5,-1 c-0.30000000000000004,-1.7000000000000002 -0.6000000000000001,-3.3 -1,-5 c-0.30000000000000004,-1.2 -0.7000000000000001,-2.3 -1.1,-3.5 C313.2,107.40001220703124 313.9,107.30001220703127 314.7,107.20001220703125 zM310.8,139.60001220703123 c-1.3,1.3 -2.6,2.5 -4.1,3.6 c-2,0.30000000000000004 -4,0.4 -6,0.4 c-1.8,0 -3.6,-0.1 -5.4,-0.30000000000000004 c-1.6,-1.2 -3.1,-2.5 -4.5,-3.9 c-1.3,-1.3 -2.6,-2.7 -3.7,-4.2 c-0.2,-1.8 -0.30000000000000004,-3.6 -0.30000000000000004,-5.5 c0,-2 0.1,-4 0.4,-6 c1.1,-1.4 2.3,-2.8 3.6,-4.1 c1.4,-1.4 2.9,-2.7 4.5,-3.9 c1.8,-0.2 3.6,-0.30000000000000004 5.4,-0.30000000000000004 c2,0 4,0.1 6,0.4 c1.4,1.1 2.8,2.3 4.1,3.6 c1.4,1.4 2.6,2.8 3.8,4.4 c0.30000000000000004,2 0.4,3.9 0.4,5.9 c0,1.8 -0.1,3.6 -0.30000000000000004,5.4 C313.5,136.70001220703125 312.2,138.20001220703125 310.8,139.60001220703123 zM314.5,136.20001220703125 c-0.30000000000000004,1.9 -0.7000000000000001,3.8 -1.1,5.7 c-1.9,0.5 -3.8,1 -5.8,1.3 c1.2,-1.1 2.3,-2.2 3.4,-3.3 C312.2,138.70001220703125 313.4,137.4000122070313 314.5,136.20001220703125 zM305.9,143.9000122070313 c-1.6,1.2 -3.2,2.2 -4.9,3.2 c-1.7000000000000002,-1 -3.4,-2 -5,-3.2 c1.6,0.1 3.1,0.1 4.7,0.1 C302.4,144.0000122070312 304.1,144.0000122070312 305.9,143.9000122070313 zM294.3,143.20001220703125 c-2,-0.30000000000000004 -3.9,-0.7000000000000001 -5.8,-1.2 c-0.5,-1.9 -0.9,-3.9 -1.2,-5.9 c1.1,1.2 2.2,2.4 3.4,3.5 C291.8,140.9000122070313 293.1,142.10001220703123 294.3,143.20001220703125 zM286.6,134.60001220703123 c-1.2,-1.6 -2.3,-3.3 -3.3,-5 c1,-1.7000000000000002 2.1,-3.4 3.3,-5 c-0.1,1.7000000000000002 -0.1,3.4 -0.1,5.2 C286.5,131.40001220703124 286.5,133.0000122070312 286.6,134.60001220703123 zM282.7,128.40001220703124 c-0.8,-1.4 -1.4,-2.8 -2,-4.2 c-0.5,-1.2 -0.9,-2.4 -1.3,-3.5 c1.1,-0.6000000000000001 2.2,-1.1 3.3,-1.6 c1.5,-0.6000000000000001 3,-1.1 4.5,-1.6 c-0.30000000000000004,2.1 -0.4,4.1 -0.5,6.2 C285.3,125.20001220703125 283.9,126.80001220703127 282.7,128.40001220703124 zM286.6,135.5000122070312 c0.1,2.1 0.2,4.1 0.5,6.2 c-1.5,-0.5 -3,-1 -4.5,-1.6 c-1.1,-0.5 -2.2,-1 -3.3,-1.6 c0.4,-1.2 0.8,-2.4 1.3,-3.5 c0.6000000000000001,-1.4 1.3,-2.9 2,-4.2 C283.9,132.4000122070313 285.3,134.0000122070312 286.6,135.5000122070312 zM287.4,122.90001220703124 c0.30000000000000004,-2 0.7000000000000001,-3.9 1.3,-5.8 c1.9,-0.5 3.8,-0.9 5.7,-1.1 c-1.3,1.2 -2.5,2.3 -3.7,3.5 C289.5,120.60001220703123 288.4,121.70001220703125 287.4,122.90001220703124 zM296,115.30001220703127 c1.6,-1.2 3.3,-2.2 5,-3.2 c1.7000000000000002,1 3.3,2 4.8,3.2 c-1.7000000000000002,-0.1 -3.4,-0.1 -5.2,-0.1 C299.2,115.20001220703125 297.6,115.20001220703125 296,115.30001220703127 zM307.6,116.00001220703126 c1.9,0.30000000000000004 3.8,0.7000000000000001 5.6,1.2 c0.5,1.8 0.9,3.7 1.2,5.6 c-1.1,-1.2 -2.3,-2.4 -3.4,-3.6 C309.9,118.20001220703125 308.7,117.10001220703123 307.6,116.00001220703126 zM315.2,135.5000122070312 c1.4,-1.5 2.7,-3 3.9,-4.6 c0.7000000000000001,1.3 1.3,2.6 1.9,4 c0.5,1.2 0.9,2.4 1.3,3.5 c-1.1,0.6000000000000001 -2.3,1.2 -3.5,1.7000000000000002 c-1.3,0.5 -2.7,1 -4,1.4 C314.9,139.5000122070312 315.1,137.5000122070312 315.2,135.5000122070312 zM315.2,124.70001220703125 c1.2,1.6 2.2,3.2 3.2,4.9 c-1,1.7000000000000002 -2,3.3 -3.2,4.9 c0.1,-1.6 0.1,-3.1 0.1,-4.7 C315.3,128.10001220703123 315.3,126.40001220703124 315.2,124.70001220703125 zM315.2,123.70001220703125 c-0.1,-2 -0.2,-4 -0.5,-6 c1.4,0.4 2.7,0.9 4.1,1.5 c1.2,0.5 2.4,1.1 3.5,1.7000000000000002 c-0.4,1.2 -0.8,2.4 -1.3,3.5 c-0.6000000000000001,1.3 -1.2,2.7 -1.9,4 C317.8,126.70001220703125 316.5,125.20001220703125 315.2,123.70001220703125 zM309.7,108.30001220703127 c0.6000000000000001,1.1 1.2,2.3 1.7000000000000002,3.5 c0.5,1.3 1,2.7 1.5,4.1 c-2,-0.2 -4,-0.4 -6,-0.5 c-1.5,-1.4 -3,-2.7 -4.6,-3.9 c1.3,-0.7000000000000001 2.6,-1.3 4,-1.9 C307.3,109.10001220703123 308.5,108.70001220703125 309.7,108.30001220703127 zM294.8,104.10001220703123 c1.7000000000000002,-2.1 3.8,-3.8 6.1,-3.9 c2.3,0 4.4,1.7000000000000002 6.1,3.9 c0.5,0.6000000000000001 0.9,1.2 1.3,1.8 c-1.1,0.5 -2.1,1.1 -3.1,1.7000000000000002 c-1.5,0.9 -2.9,1.9 -4.3,2.9 c-1.4,-1.1 -2.9,-2.1 -4.5,-3 c-0.9,-0.6000000000000001 -1.9,-1.1 -2.9,-1.5 C293.9,105.20001220703125 294.3,104.60001220703123 294.8,104.10001220703123 zM292.2,108.10001220703123 c1.1,0.4 2.2,0.7000000000000001 3.3,1.2 c1.4,0.6000000000000001 2.9,1.3 4.2,2 c-1.6,1.3 -3.2,2.6 -4.7,4 c-2,0.1 -4,0.2 -6,0.5 c0.4,-1.4 0.9,-2.7 1.4,-4 C291,110.50001220703126 291.6,109.30001220703127 292.2,108.10001220703123 zM279.6,108.30001220703127 c1.8,-1.6 4.6,-1.8 7.4,-1.4 c0.8,0.1 1.7000000000000002,0.30000000000000004 2.6,0.5 c-0.5,1.2 -0.9,2.5 -1.2,3.7 c-0.4,1.6 -0.7000000000000001,3.3 -1,5 c-1.8,0.30000000000000004 -3.6,0.6000000000000001 -5.4,1 c-1.1,0.30000000000000004 -2.2,0.7000000000000001 -3.4,1.1 c-0.2,-0.8 -0.4,-1.7000000000000002 -0.5,-2.5 C277.8,112.90001220703124 278,110.10001220703123 279.6,108.30001220703127 zM277.1,137.30001220703127 c-0.8,-0.5 -1.5,-0.9 -2.2,-1.5 c-2.2,-1.7000000000000002 -4,-3.8 -4.2,-6.2 c0.2,-2.4 2,-4.5 4.2,-6.2 c0.7000000000000001,-0.5 1.4,-1 2.2,-1.5 c0.5,1.1 1.1,2.2 1.7000000000000002,3.2 c0.9,1.6 2,3 3,4.5 c-1.1,1.4 -2.1,2.9 -3,4.5 C278.1,135.10001220703123 277.6,136.20001220703125 277.1,137.30001220703127 zM286.9,152.30001220703127 c-2.7,0.4 -5.5,0.1 -7.4,-1.4 c-1.6,-1.8 -1.8,-4.6 -1.4,-7.4 c0.1,-0.8 0.30000000000000004,-1.7000000000000002 0.5,-2.5 c1.1,0.4 2.2,0.8 3.4,1.1 c1.8,0.5 3.6,0.8 5.3,1 c0.30000000000000004,1.8 0.6000000000000001,3.6 1,5.3 c0.30000000000000004,1.1 0.7000000000000001,2.2 1.1,3.4 C288.6,152.0000122070312 287.8,152.20001220703125 286.9,152.30001220703127 zM291.9,151.10001220703123 c-0.6000000000000001,-1.1 -1.1,-2.2 -1.6,-3.3 c-0.6000000000000001,-1.4 -1.1,-2.9 -1.6,-4.5 c2.1,0.30000000000000004 4.1,0.4 6.2,0.5 c1.5,1.4 3.1,2.7 4.7,4 c-1.4,0.7000000000000001 -2.8,1.4 -4.2,2 C294.3,150.30001220703127 293.1,150.80001220703127 291.9,151.10001220703123 zM307.1,155.60001220703123 c-1.7000000000000002,2.2 -3.8,4 -6.2,4.2 c-2.4,-0.2 -4.5,-2 -6.2,-4.2 c-0.5,-0.7000000000000001 -1,-1.4 -1.5,-2.2 c1.1,-0.5 2.2,-1 3.2,-1.7000000000000002 c1.6,-0.9 3,-1.9 4.5,-3 c1.4,1 2.8,2 4.3,2.9 c1.1,0.7000000000000001 2.2,1.2 3.4,1.8 C308.1,154.20001220703125 307.6,154.9000122070313 307.1,155.60001220703123 zM309.9,151.0000122070312 c-1.3,-0.4 -2.5,-0.8 -3.8,-1.3 c-1.3,-0.6000000000000001 -2.7,-1.2 -4,-1.9 c1.6,-1.3 3.1,-2.6 4.6,-3.9 c2.1,-0.1 4.1,-0.30000000000000004 6.2,-0.5 c-0.5,1.5 -1,3 -1.6,4.5 C311,148.9000122070313 310.5,149.9000122070313 309.9,151.0000122070312 zM321.8,150.4000122070313 c-1.7000000000000002,1.6 -4.3,1.9 -7.1,1.6 c-0.7000000000000001,-0.1 -1.5,-0.2 -2.2,-0.4 c0.4,-1 0.7000000000000001,-2.1 1,-3.1 c0.5,-1.8 0.8,-3.6 1,-5.4 c1.7000000000000002,-0.30000000000000004 3.3,-0.6000000000000001 5,-1 c1.2,-0.30000000000000004 2.3,-0.7000000000000001 3.5,-1.1 c0.2,0.8 0.30000000000000004,1.5 0.4,2.3 C323.6,146.10001220703123 323.3,148.80001220703127 321.8,150.4000122070313 zM326.4,135.70001220703125 c-0.6000000000000001,0.5 -1.2,0.9 -1.8,1.3 c-0.5,-1.1 -1.1,-2.1 -1.7000000000000002,-3.1 c-0.9,-1.5 -1.9,-2.9 -2.9,-4.3 c1,-1.4 2,-2.8 2.9,-4.3 c0.6000000000000001,-1 1.1,-2.1 1.7000000000000002,-3.1 c0.6000000000000001,0.4 1.3,0.8 1.8,1.3 c2.1,1.7000000000000002 3.8,3.8 3.9,6.1 C330.3,131.90001220703124 328.6,134.0000122070312 326.4,135.70001220703125 z" id="svg_10"/>
			<circle class="st2" cx="300.8999938964844" cy="129.60000610351562" r="7.099999904632568" id="svg_11"/>
		</g>
	</g>
</g><path class="st0" d="M40.5,20.100012207031227 c0,26.7 -40.5,26.7 -40.5,0 C0,-6.699987792968727 40.5,-6.699987792968727 40.5,20.100012207031227 zM3.1000000000000014,58.60001220703123 v139.2 h34.3 V58.60001220703123 H3.1000000000000014 z" id="svg_12"/><path class="st0" d="M170.5,197.80001220703127 V125.20001220703125 c0,-21.1 -11.5,-37.1 -33.5,-37.1 c-21.1,0 -35.4,17.7 -35.4,38.8 v70.9 h-34 V58.90001220703124 h30.7 l2.3,18.8 c14.1,-13.8 28.1,-20.8 45.6,-20.8 c32.6,0 58.8,24.5 58.8,68.1 v72.8 H170.5 z" id="svg_13"/><path d="M486.20000000000005,96.00001220703126 c-9.8,-9.3 -21.1,-12.4 -34.3,-12.4 c-16.3,0 -25.3,5.1 -25.3,13.8 c0,9 8.2,14.1 25.9,15.2 c26.2,1.7000000000000002 59.3,7.6 59.3,44.4 c0,24.5 -20,45.6 -59.6,45.6 c-21.9,0 -43.9,-3.7 -64.1,-24.7 l16.9,-24.5 c9.8,11 32.3,19.1 47.8,19.4 c12.9,0.30000000000000004 25,-6.5 25,-16.6 c0,-9.6 -7.9,-13.5 -27.6,-14.6 c-26.2,-2 -57.4,-11.5 -57.4,-43 c0,-32.1 33.2,-43.3 58.5,-43.3 c21.7,0 38,4.2 54,18.3 L486.20000000000005,96.00001220703126 z" id="svg_14" class=""/><path d="M533.8,255.70001220703125 V59.10001220703123 h32.1 l2.2,19.1 c10.7,-15.5 29.2,-22.2 45,-22.2 c42.7,0 71.1,31.8 71.1,72.6 c0,40.5 -25.6,72.5 -70,72.5 c-14.6,0 -36.3,-4.5 -46.1,-19.7 v74.2 H533.8 zM649.9,128.60001220703123 c0,-21.7 -14.6,-39.4 -39.4,-39.4 s-39.4,17.7 -39.4,39.4 c0,21.7 16,39.4 39.4,39.4 S649.9,150.30001220703127 649.9,128.60001220703123 z" id="svg_15" class=""/><path d="M746.9,20.100012207031227 c0,26.7 -40.5,26.7 -40.5,0 C706.4,-6.699987792968727 746.9,-6.699987792968727 746.9,20.100012207031227 zM709.5,58.60001220703123 v139.2 h34.3 V58.60001220703123 H709.5 z" id="svg_16" class=""/><path d="M876.8,197.80001220703127 V125.20001220703125 c0,-21.1 -11.5,-37.1 -33.5,-37.1 c-21.1,0 -35.4,17.7 -35.4,38.8 v70.9 h-34 V58.90001220703124 h30.7 l2.3,18.8 c14.1,-13.8 28.1,-20.8 45.6,-20.8 c32.6,0 58.8,24.5 58.8,68.1 v72.8 H876.8 z" id="svg_17" class=""/></g></svg>